<?xml version="1.0" encoding="UTF-8"?><svg id="Capa_1" xmlns="http://www.w3.org/2000/svg" viewBox="0 0 17 17"><defs><style>.cls-1{fill:#fff;}</style></defs><circle cx="8.5" cy="8.5" r="8"/><path class="cls-1" d="M8.76,8.36c1.64-.07,2.94-.76,2.94-1.6,0-.68-.84-1.26-2.02-1.49,1.18-.14,2.02-.47,2.02-.86,0-.37-.75-.69-1.84-.83,1.08-.07,1.84-.23,1.84-.42,0-.25-1.43-.46-3.2-.46s-3.2,.21-3.2,.46c0,.18,.75,.34,1.84,.42-1.08,.15-1.84,.46-1.84,.83,0,.39,.84,.72,2.02,.86-1.18,.24-2.02,.82-2.02,1.49,0,.84,1.29,1.54,2.94,1.6-1.64,.12-2.94,1.4-2.94,2.96,0,1.64,1.43,2.98,3.2,2.98s3.2-1.33,3.2-2.98-1.29-2.84-2.94-2.96Z"/></svg>