<?xml version="1.0" standalone="no"?>
<!DOCTYPE svg PUBLIC "-//W3C//DTD SVG 20010904//EN"
 "http://www.w3.org/TR/2001/REC-SVG-20010904/DTD/svg10.dtd">
<svg version="1.0" xmlns="http://www.w3.org/2000/svg"
 width="700.000000pt" height="700.000000pt" viewBox="0 0 700.000000 700.000000"
 preserveAspectRatio="xMidYMid meet">
<metadata>
Created by potrace 1.14, written by Peter Selinger 2001-2017
</metadata>
<g transform="translate(0.000000,700.000000) scale(0.100000,-0.100000)"
fill="#000000" stroke="none">
<path d="M3417 6794 c-1 -1 -58 -5 -127 -8 -69 -3 -135 -8 -147 -10 -12 -3
-48 -7 -80 -11 -83 -8 -387 -71 -463 -95 -179 -57 -227 -72 -245 -80 -11 -5
-56 -23 -99 -40 -342 -133 -745 -393 -1016 -654 -411 -397 -677 -811 -861
-1345 -41 -117 -102 -351 -119 -456 -5 -33 -12 -71 -15 -85 -3 -14 -8 -50 -11
-80 -3 -30 -7 -66 -10 -80 -8 -47 -17 -225 -17 -340 0 -120 11 -358 17 -369 2
-3 6 -34 10 -68 14 -133 77 -425 121 -558 28 -85 77 -218 95 -260 9 -22 26
-60 36 -85 10 -25 45 -97 77 -160 185 -364 443 -700 743 -965 43 -38 81 -72
84 -75 11 -13 179 -140 245 -185 107 -75 286 -179 414 -241 105 -52 240 -112
266 -118 6 -2 21 -7 35 -13 14 -5 59 -21 100 -36 90 -30 228 -69 335 -93 44
-11 234 -43 281 -49 27 -3 65 -8 84 -11 152 -21 625 -20 710 1 8 2 42 6 75 10
212 22 545 109 784 205 751 299 1365 865 1727 1590 74 149 150 327 169 400 1
3 4 12 8 20 37 96 97 333 123 490 22 136 22 138 30 220 3 41 8 89 10 105 6 47
6 426 0 470 -3 22 -8 72 -11 110 -7 79 -12 115 -26 195 -5 30 -11 69 -14 85
-3 17 -8 41 -11 55 -3 14 -7 32 -9 40 -2 8 -11 44 -20 80 -8 36 -18 73 -20 83
-2 11 -18 62 -35 115 -305 946 -1015 1706 -1931 2066 -80 31 -152 58 -160 60
-8 1 -59 17 -114 34 -55 17 -111 34 -125 36 -14 3 -52 12 -85 20 -72 17 -219
43 -295 52 -30 3 -66 7 -79 9 -59 10 -427 25 -434 19z"/>
</g>
</svg>
