<?xml version="1.0" standalone="no"?>
<!DOCTYPE svg PUBLIC "-//W3C//DTD SVG 20010904//EN"
 "http://www.w3.org/TR/2001/REC-SVG-20010904/DTD/svg10.dtd">
<svg version="1.0" xmlns="http://www.w3.org/2000/svg"
 width="700.000000pt" height="700.000000pt" viewBox="0 0 700.000000 700.000000"
 preserveAspectRatio="xMidYMid meet">
<metadata>
Created by potrace 1.14, written by Peter Selinger 2001-2017
</metadata>
<g transform="translate(0.000000,700.000000) scale(0.100000,-0.100000)"
fill="#000000" stroke="none">
<path d="M312 6560 c-17 -4 -19 -13 -16 -65 1 -33 5 -121 9 -195 3 -74 8 -171
10 -215 2 -44 6 -136 10 -205 3 -69 7 -163 10 -210 4 -82 10 -198 20 -435 3
-60 7 -144 10 -185 2 -41 7 -138 10 -215 3 -77 7 -169 10 -205 2 -36 7 -132
11 -215 3 -82 7 -175 9 -205 2 -30 6 -127 10 -215 6 -143 10 -193 14 -218 0
-4 110 -6 243 -5 l241 3 59 200 c33 110 78 261 100 335 22 74 54 185 72 245
173 587 212 713 217 707 4 -4 39 -117 78 -252 40 -135 76 -256 81 -270 5 -14
59 -194 120 -400 62 -206 125 -419 142 -472 l30 -98 239 0 c184 0 239 3 240
13 2 28 6 101 13 252 4 88 9 187 11 220 2 33 6 125 10 205 3 80 8 172 10 205
4 64 13 266 20 430 3 55 7 143 10 195 5 89 7 139 20 415 3 61 7 151 10 200 3
50 7 137 10 195 2 58 7 161 11 230 10 216 10 230 -1 231 -34 3 -346 1 -350 -3
-4 -4 -9 -83 -20 -313 -3 -71 -8 -168 -10 -215 -3 -47 -7 -139 -10 -205 -3
-66 -8 -156 -10 -200 -2 -44 -7 -145 -10 -225 -3 -80 -8 -176 -10 -215 -3 -61
-6 -172 -20 -615 -2 -47 -4 -129 -5 -182 -1 -54 -5 -98 -9 -98 -3 0 -35 107
-70 238 -35 130 -91 336 -123 457 -33 121 -62 227 -64 235 -1 8 -15 58 -29
110 -15 52 -28 102 -30 110 -16 64 -96 353 -99 359 -2 3 -86 6 -186 6 -150 0
-183 -3 -190 -15 -4 -8 -20 -60 -34 -115 -15 -55 -39 -143 -53 -195 -14 -52
-26 -102 -28 -110 -2 -8 -28 -105 -59 -215 -85 -310 -155 -569 -187 -690 -15
-60 -35 -130 -43 -155 l-14 -45 -2 85 c-1 47 -3 119 -5 160 -1 41 -6 174 -10
295 -9 304 -13 402 -19 535 -3 63 -8 169 -11 235 -3 66 -8 161 -10 210 -4 83
-8 161 -20 445 -8 179 -17 325 -21 329 -5 6 -320 7 -342 1z"/>
<path d="M2987 6562 c-14 -3 -16 -123 -16 -1398 l0 -1394 184 0 185 0 2 1070
3 1071 33 -63 c17 -35 44 -85 58 -113 15 -27 32 -61 39 -75 7 -14 35 -68 62
-120 60 -114 153 -291 258 -495 43 -82 103 -197 133 -255 30 -58 82 -159 117
-225 100 -194 224 -430 302 -580 41 -77 81 -157 91 -177 l17 -38 195 0 196 0
0 1395 c0 955 -4 1395 -11 1396 -53 4 -339 3 -347 -2 -6 -4 -9 -393 -9 -1079
0 -589 -1 -1071 -3 -1069 -2 2 -45 85 -96 184 -91 176 -148 286 -275 530 -125
240 -194 373 -280 540 -91 177 -164 317 -270 520 -35 66 -91 174 -125 240 -33
66 -65 124 -70 129 -8 8 -335 15 -373 8z"/>
<path d="M505 3201 c-3 -2 -5 -632 -5 -1399 l0 -1394 493 5 c520 5 549 7 696
57 405 136 656 503 717 1050 10 97 13 151 14 290 1 282 -33 501 -110 709 -99
269 -278 476 -502 580 -109 51 -199 77 -339 97 -50 8 -957 12 -964 5z m999
-346 c188 -54 331 -179 422 -370 43 -91 88 -233 99 -315 4 -25 10 -63 14 -86
21 -111 18 -452 -4 -579 -60 -338 -161 -532 -341 -656 -133 -91 -226 -110
-561 -112 -255 -2 -262 -1 -265 18 -3 17 -2 2074 1 2114 2 21 554 10 635 -14z"/>
<path d="M2980 3200 c-5 -3 -9 -624 -9 -1398 l-1 -1392 185 0 185 0 0 669 0
669 570 0 569 -1 0 -606 c0 -333 0 -634 1 -668 l0 -63 183 0 183 0 0 1395 c0
767 -3 1396 -6 1396 -3 1 -83 2 -179 3 -124 1 -175 -2 -178 -10 -2 -7 -5 -261
-6 -566 l-2 -553 -567 -1 -568 -1 -2 566 -3 566 -173 0 c-95 0 -177 -2 -182
-5z"/>
<path d="M5948 2495 c-2 -1 -53 -5 -114 -9 -62 -3 -118 -8 -125 -10 -8 -3 -32
-8 -54 -11 -96 -14 -152 -42 -129 -65 12 -12 116 -39 179 -46 28 -4 68 -9 90
-13 39 -6 38 -7 -43 -24 -101 -22 -168 -50 -204 -85 -37 -34 -35 -58 7 -98 41
-38 161 -81 256 -91 32 -3 56 -9 54 -13 -3 -4 -26 -13 -51 -19 -75 -19 -166
-65 -215 -109 -184 -164 -12 -373 348 -425 l85 -13 -64 -13 c-106 -21 -204
-75 -284 -155 -83 -84 -119 -144 -145 -244 -46 -179 6 -359 142 -493 113 -110
260 -171 414 -172 99 0 136 6 218 36 87 32 145 67 205 125 142 137 199 329
150 507 -28 100 -63 160 -144 241 -78 79 -155 122 -276 154 -40 10 -62 19 -48
20 103 4 265 50 345 98 228 139 171 334 -128 436 -26 9 -55 16 -64 16 -24 0
-10 10 23 16 132 23 262 71 293 107 57 69 -30 135 -241 183 -5 1 -20 2 -35 3
-43 2 -22 9 47 16 157 15 264 51 240 79 -14 18 -108 43 -190 52 -36 3 -78 8
-95 10 -36 5 -442 13 -447 9z"/>
</g>
</svg>
