<?xml version="1.0" encoding="utf-8"?>
<!-- Generator: Adobe Illustrator 26.3.1, SVG Export Plug-In . SVG Version: 6.00 Build 0)  -->
<svg version="1.1" id="Capa_1" xmlns="http://www.w3.org/2000/svg" xmlns:xlink="http://www.w3.org/1999/xlink" x="0px" y="0px"
	 viewBox="0 0 1920 1080" style="enable-background:new 0 0 1920 1080;" xml:space="preserve">
<style type="text/css">
	.st0{fill:#FFFFFF;}
</style>
<g>
	<path class="st0" d="M1459.71,1045.07c-112.81,0-220.45-45.57-303.08-128.31c-81.21-81.32-131.21-191.23-141.08-309.87
		c-5.33,118.62-32.36,228.5-76.27,309.81c-44.7,82.78-102.94,128.37-163.99,128.37c-49.29,0-96.68-29.47-137.04-85.24
		c-39.14-54.08-69.17-129.09-86.88-217.01c-10.14,87.9-27.32,162.89-49.71,216.96c-23.11,55.8-50.27,85.29-78.54,85.29
		c-26.76,0-52.7-26.68-75.01-77.14c-21.46-48.54-38.61-116.63-49.65-197.04c-5.52,80.39-14.09,148.46-24.82,196.99
		c-11.16,50.5-24.17,77.19-37.63,77.19c-18.57,0-35.99-50.15-49.05-141.21c-13.04-90.94-20.22-211.84-20.22-340.44
		c0-128.6,7.18-249.5,20.22-340.44c13.05-91.06,30.47-141.21,49.05-141.21c13.46,0,26.47,26.69,37.63,77.19
		c10.73,48.53,19.3,116.6,24.82,196.99c11.04-80.41,28.2-148.5,49.65-197.04c22.31-50.47,48.25-77.15,75.01-77.15
		c28.27,0,55.43,29.49,78.54,85.29c22.39,54.07,39.57,129.06,49.71,216.95c17.71-87.92,47.74-162.92,86.88-217
		c40.36-55.76,87.75-85.24,137.04-85.24c61.05,0,119.29,45.59,163.99,128.37c43.9,81.31,70.94,191.19,76.27,309.81
		c9.86-118.64,59.87-228.55,141.08-309.87c82.63-82.75,190.27-128.31,303.08-128.31c60.26,0,118.71,12.74,173.74,37.85
		c53.15,24.26,100.88,58.99,141.87,103.23c40.99,44.23,73.17,95.74,95.65,153.1c23.27,59.38,35.07,122.46,35.07,187.48
		s-11.8,128.1-35.07,187.48c-22.48,57.35-54.66,108.87-95.65,153.1c-40.99,44.24-88.72,78.97-141.87,103.23
		C1578.42,1032.33,1519.96,1045.07,1459.71,1045.07z M1015.72,602.75c9.03,120.09,59.2,231.48,141.26,313.64
		c82.54,82.65,190.05,128.17,302.73,128.17c60.18,0,118.57-12.72,173.53-37.81c53.09-24.23,100.77-58.93,141.71-103.11
		c40.95-44.19,73.09-95.65,95.55-152.94c23.25-59.32,35.04-122.34,35.04-187.29s-11.79-127.97-35.04-187.29
		c-22.46-57.3-54.6-108.75-95.55-152.94c-40.94-44.19-88.62-78.88-141.71-103.11c-54.96-25.09-113.35-37.81-173.53-37.81
		c-112.68,0-220.19,45.52-302.73,128.17c-82.06,82.17-132.22,193.56-141.26,313.64l-0.5-0.01
		c-4.88-120.11-32.01-231.51-76.38-313.69C894.24,127.75,836.15,82.25,775.29,82.25c-49.12,0-96.37,29.4-136.63,85.03
		c-39.33,54.34-69.45,129.85-87.11,218.37l-0.31,1.57l-0.18-1.59c-10.11-88.53-27.35-164.05-49.86-218.4
		c-23.03-55.6-50.02-84.98-78.08-84.98c-26.55,0-52.32,26.57-74.55,76.85c-21.65,48.98-38.92,117.91-49.95,199.33l-0.33,2.44
		l-0.17-2.46c-5.51-81.42-14.15-150.36-24.98-199.36c-11.11-50.24-23.95-76.8-37.14-76.8c-37.92,0-68.76,215.84-68.76,481.15
		c0,265.31,30.85,481.16,68.76,481.16c13.19,0,26.04-26.56,37.14-76.8c10.83-49,19.47-117.93,24.98-199.36l0.17-2.46l0.33,2.44
		c11.02,81.42,28.29,150.35,49.95,199.33c22.22,50.27,48,76.85,74.55,76.85c28.05,0,55.05-29.39,78.08-84.98
		c22.51-54.35,39.75-129.87,49.86-218.4l0.18-1.59l0.31,1.57c17.66,88.52,47.78,164.03,87.11,218.37
		c40.26,55.63,87.51,85.03,136.63,85.03c60.86,0,118.95-45.5,163.55-128.11c44.37-82.18,71.5-193.58,76.38-313.69L1015.72,602.75z"
		/>
</g>
</svg>
