<?xml version="1.0" encoding="utf-8"?>
<!-- Generator: Adobe Illustrator 26.0.3, SVG Export Plug-In . SVG Version: 6.00 Build 0)  -->
<svg version="1.1" id="Capa_1" xmlns="http://www.w3.org/2000/svg" xmlns:xlink="http://www.w3.org/1999/xlink" x="0px" y="0px"
	 viewBox="0 0 73.7 80" style="enable-background:new 0 0 73.7 80;" xml:space="preserve">
<style type="text/css">
	.st0{fill:#FFFFFF;}
</style>
<g>
	<g>
		<path class="st0" d="M3.6,5.4h4.2l0.7,15.9l0.3,10.4L13.6,14h4.3l4.8,17.7L23,21.2l0.7-15.9h4.2l-1.5,31.8h-5.5L15.8,20l-5.1,17.2
			H5.1L3.6,5.4z"/>
		<path class="st0" d="M34.1,5.4h4.4L51.3,30V5.4h4.2v31.8h-4.4L38.3,12.7v24.5h-4.2V5.4z"/>
		<path class="st0" d="M6,43.6h9.2c8.1,0,12.7,5.7,12.7,15.9c0,10.2-4.6,16-12.7,16H6V43.6z M15.2,71.7c5.5,0,8.5-4.4,8.5-12.3
			c0-7.8-3.1-12.2-8.5-12.2h-5v24.4H15.2z"/>
		<path class="st0" d="M34.1,43.6h4.2v12.9h13V43.6h4.2v31.8h-4.2V60.2h-13v15.2h-4.2V43.6z"/>
	</g>
	<path class="st0" d="M68.7,62.9c-0.5,0-1,1.8-1.1,4.2c-0.2-3.8-1.5-6.7-3.2-6.7c-1.6,0-3,2.8-3.2,6.5c-0.1-2.3-0.5-4-1.1-4
		c-0.6,0-1.1,2.2-1.1,5c0,2.8,0.5,5,1.1,5c0.5,0,1-1.7,1.1-4c0.2,3.7,1.6,6.5,3.2,6.5c1.7,0,3-3,3.2-6.7c0.1,2.4,0.5,4.2,1.1,4.2
		c0.6,0,1.1-2.2,1.1-5C69.8,65.1,69.3,62.9,68.7,62.9z"/>
</g>
</svg>
