<?xml version="1.0" encoding="utf-8"?>
<!-- Generator: Adobe Illustrator 26.3.1, SVG Export Plug-In . SVG Version: 6.00 Build 0)  -->
<svg version="1.1" id="Capa_1" xmlns="http://www.w3.org/2000/svg" xmlns:xlink="http://www.w3.org/1999/xlink" x="0px" y="0px"
	 viewBox="0 0 80 80" style="enable-background:new 0 0 80 80;" xml:space="preserve">
<g>
	<g>
		<g>
			<path d="M3.34,5h4.19l0.74,15.92L8.6,31.39l4.79-17.73h4.28l4.79,17.73l0.33-10.47L23.54,5h4.19l-1.54,31.93H20.7l-5.17-17.27
				l-5.12,17.27H4.87L3.34,5z"/>
			<path d="M33.97,5h4.42l12.8,24.67V5h4.19v31.93h-4.42l-12.8-24.62v24.62h-4.19V5z"/>
			<path d="M5.71,43.37h9.22c8.15,0,12.75,5.73,12.75,15.92c0,10.24-4.61,16.01-12.75,16.01H5.71V43.37z M14.93,71.58
				c5.49,0,8.56-4.42,8.56-12.29c0-7.82-3.07-12.2-8.56-12.2H9.9v24.48H14.93z"/>
			<path d="M33.97,43.37h4.19v12.94h13.03V43.37h4.19V75.3h-4.19V60.03H38.16V75.3h-4.19V43.37z"/>
		</g>
		<path d="M70.31,63.24c3.42-0.14,6.11-1.58,6.11-3.33c0-1.41-1.74-2.62-4.2-3.11c2.46-0.28,4.2-0.97,4.2-1.78
			c0-0.77-1.57-1.42-3.82-1.73c2.26-0.15,3.82-0.48,3.82-0.87c0-0.53-2.98-0.96-6.66-0.96c-3.68,0-6.66,0.43-6.66,0.96
			c0,0.38,1.57,0.71,3.82,0.87c-2.26,0.31-3.82,0.97-3.82,1.73c0,0.81,1.74,1.5,4.2,1.78c-2.46,0.49-4.2,1.7-4.2,3.11
			c0,1.76,2.69,3.19,6.11,3.33c-3.42,0.26-6.11,2.92-6.11,6.17c0,3.42,2.98,6.19,6.66,6.19s6.66-2.77,6.66-6.19
			C76.42,66.16,73.73,63.5,70.31,63.24z"/>
	</g>
</g>
</svg>
