<?xml version="1.0" encoding="utf-8"?>
<!-- Generator: Adobe Illustrator 26.0.3, SVG Export Plug-In . SVG Version: 6.00 Build 0)  -->
<svg version="1.1" id="Capa_1" xmlns="http://www.w3.org/2000/svg" xmlns:xlink="http://www.w3.org/1999/xlink" x="0px" y="0px"
	 viewBox="0 0 80 80" style="enable-background:new 0 0 80 80;" xml:space="preserve">
<style type="text/css">
	.st0{fill:#FFFFFF;}
</style>
<g>
	<circle cx="40" cy="40" r="37.2"/>
	<g>
		<g>
			<path class="st0" d="M27,23.9h1.9l0.3,7.3l0.1,4.8l2.2-8.2h2l2.2,8.2l0.1-4.8l0.3-7.3h1.9l-0.7,14.7h-2.5l-2.4-7.9l-2.4,7.9h-2.6
				L27,23.9z"/>
			<path class="st0" d="M41,23.9h2L49,35.2V23.9h1.9v14.7h-2L43,27.3v11.3H41V23.9z"/>
			<path class="st0" d="M28.1,41.5h4.2c3.7,0,5.9,2.6,5.9,7.3s-2.1,7.4-5.9,7.4h-4.2V41.5z M32.3,54.5c2.5,0,3.9-2,3.9-5.7
				c0-3.6-1.4-5.6-3.9-5.6H30v11.2L32.3,54.5L32.3,54.5z"/>
			<path class="st0" d="M41,41.5H43v5.9h6v-5.9h1.9v14.7H49v-7h-6v7H41V41.5z"/>
		</g>
		<path class="st0" d="M57,50.4c-0.2,0-0.5,0.8-0.5,1.9c-0.1-1.8-0.7-3.1-1.5-3.1c-0.7,0-1.4,1.3-1.5,3c0-1.1-0.2-1.8-0.5-1.8
			c-0.3,0-0.5,1-0.5,2.3S52.7,55,53,55c0.2,0,0.5-0.8,0.5-1.8c0.1,1.7,0.7,3,1.5,3c0.8,0,1.4-1.4,1.5-3.1c0,1.1,0.2,1.9,0.5,1.9
			c0.3,0,0.5-1,0.5-2.3C57.5,51.4,57.3,50.4,57,50.4z"/>
	</g>
</g>
</svg>
